<svg width="131.41" height="68.003" viewBox="0 0 131.41 68.003" xmlns="http://www.w3.org/2000/svg" style="background-color:black"><g id="svgGroup" stroke-linecap="round" fill-rule="evenodd" font-size="9pt" stroke="#ffffff" stroke-width="0.25mm" fill="#ffffff" style="stroke:#ffffff;stroke-width:0.25mm;fill:#ffffff;"><path d="M 62.807 39.3 L 62.807 0 L 42.807 0 L 42.807 39.1 A 45.674 45.674 0 0 1 42.689 42.875 C 42.25 48.032 40.262 49.722 31.91 49.798 A 66.906 66.906 0 0 1 31.307 49.8 A 41.706 41.706 0 0 1 27.526 49.654 C 21.401 49.089 20.251 46.801 20.048 41.185 A 87.026 87.026 0 0 1 20.007 38.1 L 20.007 35.7 L 0.007 35.7 L 0.007 38.3 A 44.66 44.66 0 0 0 1.466 50.415 C 4.735 61.959 13.768 68 31.307 68 A 57.159 57.159 0 0 0 42.335 67.039 C 54.24 64.688 60.262 58.057 62.144 47.523 A 46.9 46.9 0 0 0 62.807 39.3 Z M 87.207 67 L 87.207 50.1 L 105.507 50.1 A 31.831 31.831 0 0 0 117.142 48.088 C 124.583 45.173 129.482 39.175 130.947 30.639 A 33.346 33.346 0 0 0 131.407 25 C 131.407 11.601 124.305 3.031 112.555 0.667 A 35.74 35.74 0 0 0 105.507 0 L 68.407 0 L 68.407 67 L 87.207 67 Z M 103.407 33.2 L 87.207 33.2 L 87.207 16.9 L 103.407 16.9 A 27.63 27.63 0 0 1 106.712 17.065 C 110.63 17.544 112.446 19.217 112.68 23.898 A 22.111 22.111 0 0 1 112.707 25 A 17.293 17.293 0 0 1 112.494 27.902 C 111.742 32.283 108.95 33.2 103.407 33.2 Z"/></g></svg>